{"accessors" : [{"bufferView" : 0, "byteOffset" : 0, "componentType" : 5123, "count" : 29220, "type" : "SCALAR", "max" : [23652], "min" : [0]}, {"bufferView" : 1, "byteOffset" : 0, "componentType" : 5126, "count" : 23653, "type" : "VEC3", "max" : [2.4571659564971924, 7.277161121368408, 1.4151469469070435], "min" : [-2.314021110534668, 0.0007019999902695417, -4.780497074127197], "name" : "POSITION"}, {"bufferView" : 1, "byteOffset" : 12, "componentType" : 5126, "count" : 23653, "type" : "VEC3", "max" : [0.9998074173927307, 0.9996421933174133, 0.9997211694717407], "min" : [-0.9998074173927307, -0.9991958737373352, -0.9995443224906921], "name" : "NORMAL"}], "asset" : {"generator" : "Aspose.3D 22.10", "version" : "2.0"}, "buffers" : [{"uri" : "data:application/octet-stream;base64,", "byteLength" : 759728}], "bufferViews" : [{"buffer" : 0, "byteOffset" : 0, "byteLength" : 58440, "target" : 34963}, {"buffer" : 0, "byteOffset" : 58444, "byteLength" : 701280, "byteStride" : 24, "target" : 34962}], "meshes" : [{"primitives" : [{"attributes" : {"POSITION" : 1, "NORMAL" : 2}, "indices" : 0, "mode" : 4}], "name" : ""}], "nodes" : [{"mesh" : 0, "name" : "Dientes.002_Plano.006"}], "scene" : 0, "scenes" : [{"nodes" : [0]}]}